# xmcd
#
# Track frame offsets:
#	182
#	22130
#	38930
#	54155
#	65405
#	86630
#	103355
#	116632
#	134705
#	146855
#	164180
#	182180
#
# Disc length: 2692 seconds
#
# Revision: 1
# Processed by: cddbd v1.4PL0 Copyright (c) Steve Scherf et al.
# Submitted via: CDmax 1.8
#
DISCID=bf0a820c
DTITLE=Mina - ...del mio meglio Vol. 3
DYEAR=1900
DGENRE=Blues
TTITLE0=E Poi
TTITLE1=La Pioggia Di Marzo (Aguas de Mar o)
TTITLE2=Domenica Sera
TTITLE3=Bird Dog
TTITLE4=Distanze
TTITLE5=Amore Mio
TTITLE6=Non Gioco Pi
TTITLE7=Fa Qualcosa
TTITLE8=Mr. Blue
TTITLE9=La Scala Buia
TTITLE10=Mai Prima
TTITLE11=Amanti Di Valore
EXTD=
EXTT0=
EXTT1=
EXTT2=
EXTT3=
EXTT4=
EXTT5=
EXTT6=
EXTT7=
EXTT8=
EXTT9=
EXTT10=
EXTT11=
PLAYORDER=
